<?xml version="1.0" encoding="UTF-8"?>
<svg id="Layer_1" xmlns="http://www.w3.org/2000/svg" version="1.1" viewBox="0 0 500 500">
  <!-- Generator: Adobe Illustrator 30.3.0, SVG Export Plug-In . SVG Version: 2.1.3 Build 182)  -->
  <defs>
    <style>
      .st0 {
        fill: #2175b8;
      }

      .st1 {
        fill: #fff;
      }

      .st2 {
        fill: #1e75b9;
      }

      .st3 {
        fill: #6c9f42;
      }

      .st4 {
        fill: #1f75b8;
      }

      .st5 {
        fill: #2374b7;
      }
    </style>
  </defs>
  <g id="_x23_ffffffff">
    <path class="st1" d="M216.5,147.28c43.66-6.7,88.92.69,129.21,18.34,3.64,18.47,5.72,37.28,5.83,56.1.19,30.92-4.83,62.52-19.21,90.18-17.05,33.94-47.41,59.87-81.63,75.57-4.14-1.96-8.25-4.01-12.28-6.17-27.89-14.89-52.41-36.93-67.6-64.89-11.17-20.24-17.74-42.87-19.88-65.84-2.84-28.63-.73-57.64,4.66-85.84,19.21-8.99,39.95-14.34,60.89-17.44M166.27,173.29c-5.2,27.91-6.97,56.69-2.98,84.88,4.95,33.06,22.34,63.51,46.11,86.71,12.28,11.46,25.85,21.76,41.23,28.71,40.47-20.61,72.91-58.14,84.55-102.36,7.49-31.94,5.86-65.46-1.18-97.31-27.4-10.93-56.95-16.31-86.41-16.31-27.69.48-55.84,4.5-81.33,15.68h0Z"/>
    <path class="st1" d="M190.8,217.16c4.09-9.22,10.07-17.66,17.82-24.16-5.58,7.92-11.15,17.45-8.82,27.52.97,5.32,5.72,9.14,10.8,10.3,7.33,1.76,14.79-.3,21.88-2.11,22.43-6.57,43.66-17.55,61.67-32.49,5.45,6.63,10.21,13.87,13.61,21.79-18.56,15.15-39.91,27-62.73,34.35-11.91,3.72-24.67,7.02-37.14,4.21-8.37-2.21-17.07-7.13-20.07-15.72-2.13-7.93-.1-16.3,2.98-23.69h0Z"/>
    <path class="st1" d="M263.96,266.93c17.78-7.94,34.83-17.89,49.5-30.8-.12,8.46-1.04,17.66-6.08,24.72-14.89,13.86-33.26,23.9-52.72,29.69-14.35,3.84-30.36,5.08-44.14-1.48-9.3-4.4-15.05-13.53-19.51-22.4,7.29,5.52,15.83,9.7,25.08,10.28,16.55,1.56,32.73-3.88,47.87-10Z"/>
    <path class="st1" d="M302.74,282.28c-12.73,19.65-32.54,33.35-53.52,43-13.06-5.89-26.23-12.43-36.56-22.55,12.53,6.13,26.93,8.19,40.6,5.04,18.25-4.16,35.55-12.98,49.49-25.48Z"/>
  </g>
  <g id="_x23_1b73b8ff">
    <path class="st4" d="M165.12,19.79C204.74,4.78,248.28.8,290.06,7.47c45.73,7.49,89.16,28.15,123.79,58.95,52.86,46.28,82.4,116.84,81.37,186.79-.22,48.32-14.67,96.87-42.82,136.34-27.8,40.25-67.83,71.78-113.16,90.03-42.98,17.62-91.23,21.69-136.63,12.03-2.65-5.12-7.74-8-12.33-11.09,4.29-5.36,9.32-10.1,14.75-14.28,31.16,9.74,64.56,12.07,96.82,7.15,46.87-7.85,90.29-31.94,123.65-65.5,38.24-38.11,61.97-90.91,62.74-145.08,1.52-63.27-27.96-126.33-77.27-165.95-31.35-25.57-69.93-42.12-110.07-47.22-49.97-6.52-102.42,3.8-145.28,30.61-34.15,21.07-62.08,52.12-79.2,88.44-9.88,21.16-16.09,44.01-18.52,67.23-2.02,1.41-3.79,3.66-6.42,3.8-5.84.26-10.62-4.31-16.48-4.1-9.48-.25-19.3,1.99-28.45-1.54,3.09-47.83,20.3-94.64,48.92-133.07,27.88-36.73,66.47-65.15,109.65-81.22h0Z"/>
  </g>
  <g id="_x23_6c9f43ff">
    <path class="st3" d="M221.24,67.78c21.61-6.06,44.3-7.05,66.61-5.89,74.18,4.94,143.15,55.54,170.37,124.68,20.81,52.72,17.7,114.31-8.49,164.61-21.48,42.05-58.17,75.68-100.95,95.32-58.61,26.89-130.69,21.43-184.71-13.72-23.38-15.17-43.66-35.38-58.03-59.31,21.53,24.34,48.92,43.7,79.67,54.45,31.68,11.24,66.75,12.76,99.22,4.05,46.58-12.47,88.07-43.57,112.34-85.34,31.27-53.84,32.61-124.31,1.19-178.41-12.79-21.96-30.11-41.42-50.89-56.13-53.44-37.59-126.71-43.27-185.93-16.2,17.95-12.87,38.26-22.4,59.6-28.12h0Z"/>
  </g>
  <g id="_x23_1b73b9ff">
    <path class="st2" d="M221.94,127.8c33.82-4.02,68.57-1.13,100.96,9.52,13.9,4.18,27.27,10.02,40.25,16.48,8.99,48.13,11.15,99.29-5.79,145.96-12.31,34.79-36.3,64.96-66.68,85.77-12.48,8.79-25.92,16.23-40.06,21.98-4.91-1.95-9.69-4.2-14.49-6.35l.04-.3c.82-5.05,1.34-10.26-.23-15.21-1.29.36-2.59.71-3.87,1.08-.05-.86-.1-1.71-.14-2.57,2.15-.96,4.31-1.92,6.48-2.87,4.03,2.17,8.14,4.21,12.28,6.17,34.22-15.7,64.58-41.62,81.63-75.57,14.38-27.66,19.4-59.25,19.21-90.18-.11-18.82-2.2-37.63-5.83-56.1-40.29-17.66-85.55-25.04-129.21-18.34-.52-2.62-1.04-5.23-1.56-7.83,4.68-4.16,10.8-2.35,16.22-1.07-.56-5.49-8.18-4.98-9.21-10.58h0Z"/>
  </g>
  <g id="_x23_1f72b7ff">
    <path class="st5" d="M138.14,153.7c26.19-13.27,54.59-22.49,83.8-25.9,1.03,5.6,8.64,5.09,9.21,10.58-5.42-1.28-11.54-3.09-16.22,1.07.52,2.61,1.04,5.21,1.56,7.83-20.94,3.1-41.68,8.45-60.89,17.44-5.39,28.21-7.5,57.21-4.66,85.84,2.14,22.97,8.71,45.6,19.88,65.84,15.19,27.96,39.7,50.01,67.6,64.89-2.17.95-4.32,1.91-6.48,2.87.04.85.08,1.7.14,2.57,1.28-.37,2.58-.73,3.87-1.08,1.58,4.95,1.06,10.17.23,15.21-25.41-11.77-47.55-30.07-65.3-51.61-24.26-30.16-36.77-68.46-39.16-106.79-2.1-29.7.7-59.6,6.42-88.75h0Z"/>
    <path class="st5" d="M6.55,234.07c9.15,3.53,18.97,1.29,28.45,1.54,5.86-.21,10.63,4.36,16.48,4.1,2.63-.14,4.4-2.39,6.42-3.8-6.31,57.16,10.65,116.77,47,161.46,25.87,31.87,60.76,56.76,100.12,68.87-5.43,4.18-10.45,8.92-14.75,14.28,4.6,3.09,9.69,5.97,12.33,11.09-76.47-15.65-143.84-69.8-175.75-141.01-16.41-36.34-22.95-76.82-20.32-116.53h0Z"/>
  </g>
  <g id="_x23_1d73b8ff">
    <path class="st0" d="M166.27,173.29c25.49-11.18,53.64-15.2,81.33-15.68,29.46,0,59.01,5.38,86.41,16.31,7.04,31.86,8.67,65.37,1.18,97.31-11.65,44.22-44.08,81.75-84.55,102.36-15.38-6.96-28.95-17.26-41.23-28.71-23.78-23.2-41.16-53.64-46.11-86.71-3.99-28.19-2.22-56.98,2.98-84.88M190.8,217.16c-3.07,7.39-5.1,15.76-2.98,23.69,3,8.59,11.7,13.51,20.07,15.72,12.47,2.81,25.23-.49,37.14-4.21,22.82-7.35,44.16-19.21,62.73-34.35-3.4-7.92-8.16-15.16-13.61-21.79-18.01,14.94-39.24,25.92-61.67,32.49-7.09,1.81-14.56,3.87-21.88,2.11-5.08-1.17-9.82-4.98-10.8-10.3-2.33-10.07,3.24-19.61,8.82-27.52-7.75,6.5-13.73,14.94-17.82,24.16M263.96,266.93c-15.13,6.12-31.32,11.57-47.87,10-9.25-.58-17.79-4.76-25.08-10.28,4.46,8.88,10.21,18,19.51,22.4,13.77,6.56,29.79,5.32,44.14,1.48,19.47-5.79,37.84-15.83,52.72-29.69,5.04-7.07,5.95-16.26,6.08-24.72-14.67,12.91-31.72,22.86-49.5,30.8M302.74,282.28c-13.94,12.5-31.24,21.32-49.49,25.48-13.66,3.16-28.07,1.1-40.6-5.04,10.33,10.12,23.5,16.67,36.56,22.55,20.98-9.64,40.79-23.35,53.52-43Z"/>
  </g>
</svg>